<svg width="19" height="19" xmlns="http://www.w3.org/2000/svg" xmlns:xlink="http://www.w3.org/1999/xlink" xml:space="preserve" overflow="hidden"><g transform="translate(-816 -143)"><path d="M826.76 152.5 830.285 148.975C830.633 148.627 830.634 148.062 830.286 147.714 829.938 147.366 829.374 147.365 829.025 147.713L825.5 151.238 821.975 147.713C821.626 147.364 821.061 147.364 820.713 147.713 820.364 148.061 820.364 148.626 820.713 148.975L824.238 152.5 820.713 156.025C820.364 156.374 820.364 156.939 820.713 157.287 821.061 157.636 821.626 157.636 821.975 157.287L825.5 153.762 829.025 157.287C829.374 157.636 829.939 157.636 830.287 157.287 830.636 156.939 830.636 156.374 830.287 156.025Z" fill="#DBA503"/></g></svg>