<svg width="55" height="56" xmlns="http://www.w3.org/2000/svg" xmlns:xlink="http://www.w3.org/1999/xlink" xml:space="preserve" overflow="hidden"><g transform="translate(-800 -125)"><path d="M31.1459 27.5 41.351 17.2949C42.3596 16.2882 42.361 14.6544 41.3542 13.6458 40.3474 12.6372 38.7137 12.6358 37.7051 13.6426L27.5 23.8477 17.2949 13.6426C16.2863 12.634 14.6512 12.634 13.6426 13.6426 12.634 14.6512 12.634 16.2863 13.6426 17.2949L23.8477 27.5 13.6426 37.7051C12.634 38.7137 12.634 40.3488 13.6426 41.3574 14.6512 42.366 16.2863 42.366 17.2949 41.3574L27.5 31.1523 37.7051 41.3574C38.7137 42.366 40.3488 42.366 41.3574 41.3574 42.366 40.3488 42.366 38.7137 41.3574 37.7051Z" fill="#00B050" transform="matrix(1 0 0 1.01818 800 125)"/></g></svg>