<svg width="59" height="59" xmlns="http://www.w3.org/2000/svg" xmlns:xlink="http://www.w3.org/1999/xlink" xml:space="preserve" overflow="hidden"><g transform="translate(-912 -286)"><path d="M945.411 315.5 956.358 304.553C957.44 303.473 957.442 301.72 956.362 300.638 955.282 299.556 953.529 299.555 952.447 300.635L941.5 311.582 930.553 300.635C929.471 299.553 927.717 299.553 926.635 300.635 925.553 301.717 925.553 303.471 926.635 304.553L937.582 315.5 926.635 326.447C925.553 327.529 925.553 329.283 926.635 330.365 927.717 331.447 929.471 331.447 930.553 330.365L941.5 319.418 952.447 330.365C953.529 331.447 955.283 331.447 956.365 330.365 957.447 329.283 957.447 327.529 956.365 326.447Z" fill="#FF0000"/></g></svg>