<svg width="19" height="19" xmlns="http://www.w3.org/2000/svg" xmlns:xlink="http://www.w3.org/1999/xlink" xml:space="preserve" overflow="hidden"><g transform="translate(-832 -157)"><path d="M842.76 166.5 846.285 162.975C846.633 162.627 846.634 162.062 846.286 161.714 845.938 161.366 845.374 161.365 845.025 161.713L841.5 165.238 837.975 161.713C837.626 161.364 837.061 161.364 836.713 161.713 836.364 162.061 836.364 162.626 836.713 162.975L840.238 166.5 836.713 170.025C836.364 170.374 836.364 170.939 836.713 171.287 837.061 171.636 837.626 171.636 837.975 171.287L841.5 167.762 845.025 171.287C845.374 171.636 845.939 171.636 846.287 171.287 846.636 170.939 846.636 170.374 846.287 170.025Z" fill="#04C1FC"/></g></svg>